name processed_emg_signals
nRows=40
nColumns=7
 
endheader
time	LGLTMED	LRF	LADDLONG	LST	LTA	LGM
1.235	0.7221654069975171	0.9425632086741108	0.9455395433902616	0.9903553278108412	0.4668658424998452	0.0708932434997553
1.236	0.7223610017268806	0.941583095318864	0.9454221918676238	0.992342329630072	0.4565240628858961	0.0703185180556697
1.237	0.7223491295474195	0.9403332272390248	0.945184662249666	0.9941102319962892	0.4462400479542173	0.0697602303316674
1.238	0.7221306867543301	0.9388155708355788	0.9448243077632336	0.9956545925109446	0.4360185020317505	0.069218648706673
1.239	0.7217067592926385	0.9370324196342056	0.94433862160037	0.996971136056593	0.4258640374582798	0.0686940291908711
1.24	0.7210786214908753	0.9349863892892484	0.9437252422098568	0.9980557652478622	0.4157811727081529	0.0681866153033141
1.241	0.7202477346304931	0.9326804118730244	0.9429819582858322	0.9989045709304736	0.4057743305620158	0.0676966379540239
1.242	0.7192157453460536	0.9301177294715376	0.9421067134575122	0.999513842710216	0.3958478363284496	0.0672243153319024
1.243	0.7179844838531313	0.927301887109886	0.941097610682364	0.9998800794912313	0.386005916114556	0.0667698527998204
1.244	0.7165559620030285	0.9242367250344722	0.939952916345211	1.0	0.3762526951437546	0.066333442797959
1.245	0.7149323711657568	0.920926370383329	0.938671064065176	0.9998705532685976	0.3665921961182309	0.065915264756568
1.246	0.7131160799433518	0.917375228280897	0.9372506582109056	0.999488929047602	0.3570283376228052	0.065515485019095
1.247	0.7111096317155349	0.913587972398151	0.9356904771226394	0.9988525681159344	0.3475649325666927	0.065134256776536
1.248	0.7089157420187813	0.909569535023008	0.9339894760381516	0.9979591724520832	0.3382056866593438	0.0647717200139069
1.249	0.7065372957585372	0.9053250966879228	0.9321467897170156	0.9968067152280232	0.328954196916808	0.0644280014695329
1.25	0.7039773442533211	0.900860075402452	0.9301617347588385	0.9953934505839848	0.3198139501953685	0.0641032146080237
1.2510000000000001	0.7012391021098493	0.8961801155373568	0.9280338116103316	0.9937179231388282	0.3107883217501609	0.063797459607726
1.252	0.6983259439294102	0.8912910764049478	0.9257627062562944	0.9917789771873669	0.3018805738177871	0.0635108233634933
1.2530000000000001	0.6952414008477288	0.8861990205775953	0.9233482915897084	0.9895757655326772	0.2930938542236954	0.063243379505473
1.254	0.6919891569126985	0.8809102019850223	0.9207906284558968	0.987107757898652	0.2844311950170635	0.0629951884345579
1.2550000000000001	0.6885730453063751	0.8754310538280325	0.9180899663646792	0.9843747488660212	0.2758955111378612	0.0627662973748697
1.256	0.6849970444185974	0.8697681763452703	0.9152467438661136	0.9813768652733212	0.2674895991223213	0.0625567404437871
1.2570000000000001	0.6812652737812905	0.863928324466648	0.9122615885852604	0.978114573023781	0.2592161358539515	0.0623665387397774
1.258	0.6773819898733081	0.8579183953860732	0.9091353169132238	0.9745886832389692	0.2510776773674234	0.062195700448541
1.2590000000000001	0.6733515818076162	0.8517454160844157	0.9058689333543772	0.970800357700904	0.2430766577126216	0.0620442209678884
1.26	0.6691785669128861	0.8454165308324009	0.9024636295321626	0.9667511135251045	0.2352153878855214	0.0619120830519252
1.2610000000000001	0.6648675862222698	0.8389389887018348	0.8989207828599219	0.9624428270084526	0.2274960548321497	0.0617992569749509
1.262	0.6604233998812153	0.8323201311116084	0.8952419548848611	0.9578777365984904	0.2199207205311975	0.061705700715502
1.2630000000000001	0.6558508824852919	0.8255673794339061	0.8914288893162867	0.953058444935473	0.2124913211604738	0.0616313601607398
1.264	0.6511550183578969	0.8186882226849242	0.8874835097487218	0.9479879199245448	0.2052096663520936	0.0615761693313398
1.2650000000000001	0.6463408967762806	0.8116902053230014	0.883407917090681	0.9426694948015952	0.1980774385411839	0.0615400506268744
1.266	0.6414137071526478	0.8045809151760343	0.8792043867088601	0.9371068671635872	0.1910961924127706	0.061522915091642
1.2670000000000001	0.6363787341759118	0.797367971518399	0.8748753652959583	0.9313040969431328	0.1842673544512217	0.0615246627007724
1.268	0.6312413529181738	0.7900590133165892	0.8704234674695625	0.925265603317094	0.1775922225962444	0.0615451826663125
1.2690000000000001	0.6260070239095851	0.7826616876617686	0.865851472107014	0.9189961605489668	0.1710719660090414	0.0615843537629074
1.27	0.6206812881846933	0.7751836384067857	0.8611623184217609	0.9125008927744188	0.1647076249519646	0.0616420446724382
1.2710000000000001	0.6152697623031302	0.7676324950234441	0.8563591017845117	0.905785267749285	0.1585001107846935	0.0617181143470342
1.272	0.6097781333473179	0.7600158616942116	0.8514450692937554	0.8988550895891316	0.1524502060798098	0.0618124123896352
1.2730000000000001	0.604212153899851	0.7523413066504164	0.8464236151013268	0.8917164905370125	0.1465585648602549	0.0619247794513707
1.274	0.5985776370033076	0.7446163517670575	0.8412982755007148	0.8843759218010357	0.1408257129608321	0.062055047644875
